<svg  viewBox="0 0 7 12" fill="none" xmlns="http://www.w3.org/2000/svg">
    <g opacity="0.8">
        <path fill-rule="evenodd" clip-rule="evenodd"
            d="M2.0532 6.0009L6.551 1.46527C6.8839 1.12914 6.8839 0.587019 6.551 0.250891C6.39237 0.0903187 6.176 9.26364e-07 5.95033 9.165e-07C5.72466 9.06636e-07 5.50829 0.0903186 5.34967 0.250891L0.2512 5.39281C-0.082761 5.72857 -0.082761 6.27143 0.2512 6.60719L5.34945 11.7491C5.50829 11.9097 5.72466 12 5.95033 12C6.176 12 6.39237 11.9097 6.55121 11.7491C6.8839 11.4129 6.8839 10.8708 6.55079 10.5347L2.0532 6.0009Z"
            fill="url(#paint0_radial_860_35223)" />
        <path fill-rule="evenodd" clip-rule="evenodd"
            d="M2.0532 6.0009L6.551 1.46527C6.8839 1.12914 6.8839 0.587019 6.551 0.250891C6.39237 0.0903187 6.176 9.26364e-07 5.95033 9.165e-07C5.72466 9.06636e-07 5.50829 0.0903186 5.34967 0.250891L0.2512 5.39281C-0.082761 5.72857 -0.082761 6.27143 0.2512 6.60719L5.34945 11.7491C5.50829 11.9097 5.72466 12 5.95033 12C6.176 12 6.39237 11.9097 6.55121 11.7491C6.8839 11.4129 6.8839 10.8708 6.55079 10.5347L2.0532 6.0009Z"
            fill="#C81A24" />
        <path fill-rule="evenodd" clip-rule="evenodd"
            d="M2.0532 6.0009L6.551 1.46527C6.8839 1.12914 6.8839 0.587019 6.551 0.250891C6.39237 0.0903187 6.176 9.26364e-07 5.95033 9.165e-07C5.72466 9.06636e-07 5.50829 0.0903186 5.34967 0.250891L0.2512 5.39281C-0.082761 5.72857 -0.082761 6.27143 0.2512 6.60719L5.34945 11.7491C5.50829 11.9097 5.72466 12 5.95033 12C6.176 12 6.39237 11.9097 6.55121 11.7491C6.8839 11.4129 6.8839 10.8708 6.55079 10.5347L2.0532 6.0009Z"
            fill="white" fill-opacity="0.24" style="mix-blend-mode:overlay" />
    </g>
    <defs>
        <radialGradient id="paint0_radial_860_35223" cx="0" cy="0" r="1"
            gradientUnits="userSpaceOnUse"
            gradientTransform="translate(3.40078 6) rotate(-180) scale(3.4 6)">
            <stop stop-color="#CC8B8B" />
            <stop offset="1" stop-color="#EC061D" />
        </radialGradient>
    </defs>
</svg>